Normalized EMG Linear Envelopes
nRows=132
nColumns=4

endheader
time	 med_gas_r	  soleus_r	 tib_ant_r	
3.50706	  0.022064	  0.018792	  0.007496	
3.57863	  0.024233	  0.020706	  0.007352	
3.6502	  0.026760	  0.021853	  0.007297	
3.72177	  0.028721	  0.022533	  0.007301	
3.79335	  0.030005	  0.022848	  0.007490	
3.86492	  0.030490	  0.022759	  0.007721	
3.93649	  0.030800	  0.022518	  0.007730	
4.00806	  0.031267	  0.022065	  0.007530	
4.07964	  0.031713	  0.021482	  0.007277	
4.15121	  0.032530	  0.021306	  0.007284	
4.22278	  0.033913	  0.021709	  0.007654	
4.29435	  0.035371	  0.022180	  0.008127	
4.36593	  0.035746	  0.022733	  0.008435	
4.4375	  0.034826	  0.023319	  0.008530	
4.50907	  0.033551	  0.022952	  0.008398	
4.58065	  0.032849	  0.022247	  0.008225	
4.65222	  0.032826	  0.021932	  0.008032	
4.72379	  0.032815	  0.022085	  0.007942	
4.79536	  0.032407	  0.022645	  0.007830	
4.86694	  0.031939	  0.023148	  0.007808	
4.93851	  0.031536	  0.022869	  0.007693	
5.01008	  0.031286	  0.021383	  0.007437	
5.08165	  0.032188	  0.020901	  0.008433	
5.15323	  0.034462	  0.026038	  0.013655	
5.2248	  0.038759	  0.042029	  0.026403	
5.29637	  0.046252	  0.070837	  0.048257	
5.36794	  0.057069	  0.104847	  0.073085	
5.43952	  0.066864	  0.125807	  0.090442	
5.51109	  0.070932	  0.134645	  0.097867	
5.58266	  0.071762	  0.138499	  0.096738	
5.65423	  0.069482	  0.138823	  0.091337	
5.72581	  0.065053	  0.144569	  0.088783	
5.79738	  0.063661	  0.154809	  0.093142	
5.86895	  0.066337	  0.166427	  0.101519	
5.94052	  0.069617	  0.173219	  0.107989	
6.0121	  0.070601	  0.174083	  0.110738	
6.08367	  0.067272	  0.166194	  0.110589	
6.15524	  0.061599	  0.147742	  0.107912	
6.22681	  0.057117	  0.137732	  0.103586	
6.29839	  0.057668	  0.142030	  0.102659	
6.36996	  0.063539	  0.156062	  0.109952	
6.44153	  0.068530	  0.167819	  0.123091	
6.5131	  0.069186	  0.176912	  0.135103	
6.58468	  0.066843	  0.183018	  0.140451	
6.65625	  0.065530	  0.187413	  0.136625	
6.72782	  0.066109	  0.187309	  0.128426	
6.7994	  0.066706	  0.186834	  0.124219	
6.87097	  0.070055	  0.194031	  0.127443	
6.94254	  0.079739	  0.209709	  0.136734	
7.01411	  0.098025	  0.231516	  0.149045	
7.08569	  0.120090	  0.253950	  0.156980	
7.15726	  0.142791	  0.277877	  0.160257	
7.22883	  0.165711	  0.301203	  0.165289	
7.3004	  0.184431	  0.324844	  0.170257	
7.37198	  0.201377	  0.342293	  0.172380	
7.44355	  0.216182	  0.348026	  0.170543	
7.51512	  0.223002	  0.341593	  0.168671	
7.58669	  0.231074	  0.339776	  0.170374	
7.65827	  0.243386	  0.342066	  0.174691	
7.72984	  0.251545	  0.340496	  0.175460	
7.80141	  0.254875	  0.353270	  0.178212	
7.87298	  0.255375	  0.366673	  0.183438	
7.94456	  0.255723	  0.364427	  0.186174	
8.01613	  0.264610	  0.354591	  0.185851	
8.0877	  0.291687	  0.375380	  0.183344	
8.15927	  0.342042	  0.427086	  0.188320	
8.23085	  0.406059	  0.454069	  0.201835	
8.30242	  0.460283	  0.449534	  0.217303	
8.37399	  0.506196	  0.465565	  0.221742	
8.44556	  0.543179	  0.501527	  0.219439	
8.51714	  0.565216	  0.545079	  0.224074	
8.58871	  0.582715	  0.581267	  0.233955	
8.66028	  0.586853	  0.576044	  0.243651	
8.73185	  0.591657	  0.554200	  0.247505	
8.80343	  0.611321	  0.553002	  0.248548	
8.875	  0.628435	  0.567437	  0.250459	
8.94657	  0.632719	  0.583421	  0.250360	
9.01815	  0.602736	  0.588919	  0.243224	
9.08972	  0.550464	  0.567373	  0.231007	
9.16129	  0.501979	  0.526689	  0.215170	
9.23286	  0.482926	  0.511363	  0.200030	
9.30444	  0.501693	  0.538158	  0.190971	
9.37601	  0.532048	  0.575559	  0.190642	
9.44758	  0.556251	  0.593185	  0.192077	
9.51915	  0.578342	  0.587594	  0.194871	
9.59073	  0.584311	  0.558825	  0.195851	
9.6623	  0.563947	  0.512096	  0.195747	
9.73387	  0.509997	  0.458152	  0.191023	
9.80544	  0.464410	  0.425155	  0.185299	
9.87702	  0.453866	  0.421617	  0.181427	
9.94859	  0.478733	  0.444167	  0.180193	
10.0202	  0.512613	  0.478077	  0.182368	
10.0917	  0.544339	  0.501970	  0.183732	
10.1633	  0.559738	  0.501076	  0.183777	
10.2349	  0.542185	  0.471716	  0.186530	
10.3065	  0.509887	  0.434290	  0.190744	
10.378	  0.484216	  0.410835	  0.188692	
10.4496	  0.467342	  0.402617	  0.179360	
10.5212	  0.480033	  0.417721	  0.177024	
10.5927	  0.530549	  0.474554	  0.186253	
10.6643	  0.592188	  0.535208	  0.199221	
10.7359	  0.631533	  0.568589	  0.207150	
10.8075	  0.639074	  0.618547	  0.208149	
10.879	  0.640872	  0.703830	  0.204336	
10.9506	  0.657661	  0.792317	  0.200296	
11.0222	  0.669076	  0.829130	  0.195312	
11.0937	  0.634282	  0.765461	  0.193643	
11.1653	  0.586353	  0.654058	  0.199117	
11.2369	  0.552160	  0.555248	  0.204583	
11.3085	  0.532385	  0.492087	  0.201812	
11.38	  0.529928	  0.475744	  0.189224	
11.4516	  0.545525	  0.504362	  0.177373	
11.5232	  0.571738	  0.564365	  0.177808	
11.5948	  0.592746	  0.627487	  0.187634	
11.6663	  0.576878	  0.669474	  0.190387	
11.7379	  0.498955	  0.632634	  0.181372	
11.8095	  0.366578	  0.480058	  0.154190	
11.881	  0.231523	  0.285887	  0.115555	
11.9526	  0.123650	  0.133924	  0.076387	
12.0242	  0.055916	  0.046818	  0.046298	
12.0958	  0.026737	  0.013470	  0.027201	
12.1673	  0.021208	  0.009561	  0.017277	
12.2389	  0.025481	  0.017055	  0.012674	
12.3105	  0.030763	  0.025379	  0.011036	
12.3821	  0.033651	  0.029427	  0.011000	
12.4536	  0.034059	  0.027387	  0.010940	
12.5252	  0.033608	  0.023280	  0.010106	
12.5968	  0.033290	  0.020372	  0.009225	
12.6683	  0.033134	  0.019084	  0.009054	
12.7399	  0.032988	  0.019337	  0.009850	
12.8115	  0.032334	  0.020198	  0.011151	
12.8831	  0.031869	  0.020978	  0.011673	
